<?xml version="1.0" encoding="windows-1252"?>
<!-- Generator: Adobe Illustrator 19.0.0, SVG Export Plug-In . SVG Version: 6.00 Build 0)  -->
<svg version="1.1" id="Layer_1" xmlns="http://www.w3.org/2000/svg" xmlns:xlink="http://www.w3.org/1999/xlink" x="0px" y="0px" viewBox="0 0 496.158 496.158"  xml:space="preserve">
<path style="fill:transparent" d="M248.082,0.003C111.07,0.003,0,111.063,0,248.085c0,137.001,111.07,248.07,248.082,248.07  c137.006,0,248.076-111.069,248.076-248.07C496.158,111.062,385.088,0.003,248.082,0.003z"/>
<g><!--#334D5C style="enable-background:new 0 0 496.158 496.158;"-->
	<path style="fill:#A5A5A5;" d="M212.6,416.775c-7.951-5.872-21.789-0.623-30.908,11.725s-15.596,20.425-7.646,26.298   c7.951,5.872,32.288,0.066,41.409-12.282C224.573,430.168,220.55,422.646,212.6,416.775z"/>
	<path style="fill:#A5A5A5;" d="M314.193,428.499c-9.119-12.348-22.957-17.597-30.908-11.725   c-7.949,5.872-11.974,13.394-2.854,25.74c9.12,12.349,33.457,18.154,41.408,12.282   C329.789,448.925,323.313,440.847,314.193,428.499z"/>
</g>
<path style="fill:#D6E2D3;" d="M311.615,348.2l-6.718-78.956h-113.92l-6.892,80.773c0,0-1.969,78.9,2.117,81.298  c4.085,2.398,23.812,2.339,29.154-0.582c5.344-2.922,20.994-81.565,20.994-81.565l7-35.614c0,0,1.053-10.461,4.912-10.461  c3.861,0,4.738,10.286,4.738,10.286l6.318,34.739c0,0,14.648,79.746,20.257,82.666c5.608,2.919,28.343,3.133,31.841-0.586  C314.915,426.478,311.615,348.2,311.615,348.2z"/>
<g>
	<path style="fill:#818281;" d="M342.529,292.218l-0.944,18.667c0,0-0.333,2.741-1.739,3.35c0,0,2.379-0.153,2.79-3.573   l0.843-18.865L342.529,292.218z"/>
	<path style="fill:#818281;" d="M338.49,289.381l-6.106,17.78c0,0-0.814,2.867-2.451,3.104c0,0,2.437,0.398,4.136-2.637   l6.162-17.718L338.49,289.381z"/>
</g>
<path style="fill:#A5A5A5;" d="M357.448,300.156c0,0-2.215-9.706-2.714-11.639l-0.584-11.572c0,0-9.041-1.786-18.674-4.989  c0,0-4.391,6.499-5.535,7.104c-1.146,0.606-3.496,5.282-7.721,10.503l0.01,0.004c-2.43,1.711-5.102,4.018-4.561,5.591  c0,0,1.008,2.819,4.762,3.307c0,0,1.175,0.36,2.363-0.615l3.608-3.078l2.595-3.957l-4.559,11.11l-2.191,3.873  c-0.521,1.172,0.152,2.029,0.152,2.029c1.455,2.072,5.479,2.45,5.479,2.45c3.517-0.273,7.177-14.903,7.177-14.903  s0.633-1.667,1.334-3.731l-0.156,1.468l-5.165,17.619c-0.173,1.11,0.707,2.02,0.707,2.02c1.945,1.851,5.856,1.567,5.856,1.567  c3.037-0.68,2.685-10.265,2.685-10.265s0.241-7.584,0.768-11.927l-0.214,8.43l-0.27,9.795c0.104,1.327,1.021,1.975,1.021,1.975  c2.195,1.678,5.666,0.911,5.666,0.911c1.363-0.535,1.783-2.738,1.838-4.999c0.154,1.014,1.222,1.859,1.222,1.859  c2.36,1.538,5.167,0.58,5.167,0.58C360.341,309.262,357.448,300.156,357.448,300.156z M350.858,303.652l0.006,0.049l0.002,0.041  C350.864,303.713,350.86,303.68,350.858,303.652z"/>
<path style="fill:#818281;" d="M349.532,291.797l1.406,17.911c0,0-0.148,2.771-1.503,3.438c0,0,2.348-0.249,2.529-3.706  L349.532,291.797z"/>
<path style="fill:#BDC1BC;" d="M324.529,275.217l2.105,3.685l28.424-1.579l0.79-4.737  C355.849,272.585,332.162,269.953,324.529,275.217z"/>
<g>
	<path style="fill:#818281;" d="M154.573,310.886l-0.943-18.667l-0.95-0.421l0.843,18.865c0.411,3.42,2.79,3.573,2.79,3.573   C154.906,313.627,154.573,310.886,154.573,310.886z"/>
	<path style="fill:#818281;" d="M163.774,307.161l-6.106-17.78l-1.739,0.529l6.162,17.718c1.698,3.035,4.135,2.637,4.135,2.637   C164.589,310.028,163.774,307.161,163.774,307.161z"/>
</g>
<path style="fill:#A5A5A5;" d="M173.928,289.568l0.01-0.004c-4.225-5.221-6.575-9.897-7.721-10.503  c-1.145-0.605-5.535-7.104-5.535-7.104c-9.633,3.203-18.674,4.989-18.674,4.989l-0.583,11.572c-0.5,1.933-2.715,11.639-2.715,11.639  s-2.893,9.106-0.065,10.521c0,0,2.807,0.958,5.167-0.58c0,0,1.067-0.845,1.222-1.859c0.055,2.26,0.475,4.463,1.838,4.999  c0,0,3.471,0.767,5.667-0.911c0,0,0.915-0.648,1.02-1.975l-0.27-9.795l-0.214-8.43c0.526,4.343,0.768,11.927,0.768,11.927  s-0.352,9.584,2.685,10.265c0,0,3.911,0.284,5.856-1.567c0,0,0.88-0.91,0.707-2.02l-5.165-17.619l-0.156-1.468  c0.701,2.064,1.335,3.731,1.335,3.731s3.659,14.63,7.176,14.903c0,0,4.023-0.378,5.479-2.45c0,0,0.672-0.857,0.151-2.029  l-2.191-3.873l-4.559-11.11l2.596,3.957l3.607,3.078c1.189,0.976,2.363,0.615,2.363,0.615c3.754-0.488,4.762-3.307,4.762-3.307  C179.029,293.586,176.358,291.279,173.928,289.568z M145.292,303.742l0.002-0.041l0.006-0.049  C145.298,303.68,145.294,303.713,145.292,303.742z"/>
<path style="fill:#818281;" d="M145.22,309.708l1.407-17.911l-2.433,17.643c0.181,3.458,2.528,3.706,2.528,3.706  C145.368,312.479,145.22,309.708,145.22,309.708z"/>
<path style="fill:#BDC1BC;" d="M140.309,272.585l0.79,4.737l28.424,1.579l2.105-3.685  C163.996,269.953,140.309,272.585,140.309,272.585z"/>
<path style="fill:#AFB2AD;" d="M298.088,49.263h-99.686c-8.157,0-14.77,5.998-14.77,13.397v90.433  c0,7.399,6.612,13.397,14.77,13.397h99.686c8.156,0,14.769-5.998,14.769-13.397V62.66C312.856,55.261,306.244,49.263,298.088,49.263  z"/>
<path style="fill:#C0C9BD;" d="M298.088,54.169h-99.686c-8.157,0-14.77,6.612-14.77,14.769v99.687  c0,8.156,6.612,14.768,14.77,14.768h99.686c8.156,0,14.769-6.612,14.769-14.768V68.938  C312.856,60.782,306.244,54.169,298.088,54.169z"/>
<g>
	<path style="fill:#DFEADC;" d="M323.375,138.564c-3.051-19.511-40.789-30.416-72.722-30.416h-4.817   c-31.933,0-70.535,12.123-72.722,30.416c-1.649,13.804,0.138,51.02,1.116,68.458c19.929,17.014,45.785,27.291,74.043,27.291   c28.296,0,54.18-10.303,74.121-27.356C323.576,189.704,325.665,153.22,323.375,138.564z"/>
	<path style="fill:#DFEADC;" d="M329.369,138.564c-3.051-19.511-46.914-30.416-78.849-30.416h-4.817   c-31.932,0-76.797,12.123-78.982,30.416c-1.65,13.804,23.368,113.241,24.125,130.679c0,0,26.876,8.687,54.485,8.687   c27.647,0,60.128-8.752,60.128-8.752C306.371,251.925,331.66,153.22,329.369,138.564z"/>
</g>
<path style="fill:#D6E2D3;" d="M248.244,37.949c-27.401,0-49.616,18.188-49.616,43.482c0,40.348,22.215,51.798,49.616,51.798  c27.404,0,49.617-11.45,49.617-51.798C297.861,56.137,275.648,37.949,248.244,37.949z"/>
<path style="fill:#E5EAE4;" d="M248.244,37.949c-27.401,0-49.616,18.188-49.616,43.482c0,19.014,4.933,31.611,13.018,39.615  l73.239-69.443C275.811,43.049,262.756,37.949,248.244,37.949z"/>
<path style="fill:#9B9A8C;" d="M248.244,54.169c-21.612,0-39.133,12.764-39.133,32.715c0,34.896,17.521,43.211,39.133,43.211  c21.613,0,39.134-8.315,39.134-43.211C287.378,66.933,269.857,54.169,248.244,54.169z"/>
<path style="fill:#8E8D85;" d="M273.558,61.322l-56.449,56.45c7.149,9.449,18.435,12.323,31.135,12.323  c21.613,0,39.134-8.315,39.134-43.211C287.378,75.847,282.011,67.016,273.558,61.322z"/>
<g>
	<path style="fill:#B8BCB7;" d="M209.666,163.538l-18.951,51.233l-6.315,19.3c0.452,0.183,6.666-12.632,9.824-18.248   C200.364,201.086,214.576,168.803,209.666,163.538z"/>
	<path style="fill:#B8BCB7;" d="M305.778,214.772l-18.95-51.233c-4.911,5.264,9.301,37.548,15.441,52.286   c3.158,5.615,9.372,18.431,9.824,18.248L305.778,214.772z"/>
</g>
<g>
	<path style="fill:#DFEADC;" d="M355.849,242.407c-6.316-67.375-27.4-107.468-27.4-107.468l-40.18,31.758   c0,0,3.796,11.741,12.633,38.25c3.86,11.581,15.47,38.338,18.276,46.409c1.293,3.715,5.352,23.862,5.352,23.862   s10.347-2.649,19.683-1.93c9.123,0.702,11.608,0.263,11.608,0.263C357.926,259.162,355.849,242.407,355.849,242.407z"/>
	<path style="fill:#DFEADC;" d="M168.14,134.939c0,0-21.601,40.443-27.917,107.819c0,0-2.105,15.791,0,30.178   c0,0,2.281-0.175,11.404-0.877c9.336-0.718,20.002,3.158,20.002,3.158s3.972-19.796,5.264-23.511   c2.808-8.071,14.934-35.179,18.794-46.76c8.838-26.508,12.634-38.25,12.634-38.25L168.14,134.939z"/>
</g>
<g>
</g>
<g>
</g>
<g>
</g>
<g>
</g>
<g>
</g>
<g>
</g>
<g>
</g>
<g>
</g>
<g>
</g>
<g>
</g>
<g>
</g>
<g>
</g>
<g>
</g>
<g>
</g>
<g>
</g>
</svg>